<svg width="80px" height="80px" viewBox="0 0 80 80" version="1.1" xmlns="http://www.w3.org/2000/svg" xmlns:xlink="http://www.w3.org/1999/xlink">
<desc>Omega Five Icon for Drupal 8.</desc>
<defs></defs>
<g id="Symbols" stroke="none" stroke-width="1" fill="none" fill-rule="evenodd">
    <g id="Omega-Icon" transform="translate(-12.000000, -12.000000)" fill="#000000">
        <path d="M83.3296363,83.199559 L82.7561138,83.199559 C82.689104,83.199559 82.6319494,83.1916756 82.5846484,83.1759086 C82.5373473,83.1601416 82.4989158,83.1305789 82.4693526,83.0872196 C82.4397895,83.0438603 82.4181101,82.982764 82.404314,82.9039289 C82.3905178,82.8250938 82.3836199,82.7226097 82.3836199,82.5964736 C82.3836199,82.4703374 82.3905178,82.3678533 82.404314,82.2890182 C82.4181101,82.2101831 82.4397895,82.1481014 82.4693526,82.1027713 C82.4989158,82.0574411 82.5373473,82.0268929 82.5846484,82.0111259 C82.6319494,81.9953589 82.689104,81.9874755 82.7561138,81.9874755 L88.1484073,81.9874755 C88.2863687,81.9874755 88.3849111,82.0170382 88.4440374,82.0761646 C88.5031637,82.1352909 88.5327265,82.2338333 88.5327265,82.3717947 L88.5327265,84.1574006 C88.5327265,84.2914203 88.4755719,84.3870064 88.361261,84.4441618 C88.2469501,84.5013173 88.0636613,84.5298946 87.811389,84.5298946 C87.6852528,84.5298946 87.5807979,84.5229966 87.498021,84.5092005 C87.4152442,84.4954043 87.3502062,84.473725 87.3029051,84.4441618 C87.2556041,84.4145987 87.2220997,84.3761672 87.2023909,84.3288661 C87.1826821,84.281565 87.1728279,84.2244105 87.1728279,84.1574006 L87.1728279,83.258685 L84.8077869,83.258685 L84.8077869,84.7545735 L86.2504619,84.7545735 C86.3174717,84.7545735 86.3746263,84.7644277 86.4219274,84.7841365 C86.4692284,84.8038453 86.50766,84.8373497 86.5372231,84.8846507 C86.5667863,84.9319518 86.5884656,84.9969898 86.6022617,85.0797666 C86.6160579,85.1625435 86.6229559,85.2669984 86.6229559,85.3931345 C86.6229559,85.5192707 86.6160579,85.6227402 86.6022617,85.7035462 C86.5884656,85.7843521 86.5667863,85.8484047 86.5372231,85.8957057 C86.50766,85.9430068 86.4692284,85.9765112 86.4219274,85.99622 C86.3746263,86.0159288 86.3174717,86.025783 86.2504619,86.025783 L84.8077869,86.025783 L84.8077869,87.7345251 L87.2319539,87.7345251 L87.2319539,86.5401794 C87.2319539,86.4061598 87.2891085,86.3105736 87.4034194,86.2534182 C87.5177303,86.1962628 87.7089025,86.1676855 87.9769418,86.1676855 C88.1109615,86.1676855 88.221329,86.1745834 88.3080476,86.1883796 C88.3947662,86.2021757 88.4637458,86.223855 88.5149886,86.2534182 C88.5662315,86.2829814 88.6017067,86.3214129 88.6214155,86.3687139 C88.6411243,86.416015 88.6509785,86.4731696 88.6509785,86.5401794 L88.6509785,88.6214155 C88.6509785,88.7593769 88.6214158,88.8579193 88.5622895,88.9170456 C88.5031631,88.9761719 88.4046208,89.0057347 88.2666593,89.0057347 L82.7561138,89.0057347 C82.689104,89.0057347 82.6319494,88.9978513 82.5846484,88.9820842 C82.5373473,88.9663172 82.4989158,88.9367545 82.4693526,88.8933952 C82.4397895,88.8500359 82.4181101,88.7889396 82.404314,88.7101045 C82.3905178,88.6312694 82.3836199,88.5287854 82.3836199,88.4026492 C82.3836199,88.276513 82.3905178,88.174029 82.404314,88.0951939 C82.4181101,88.0163588 82.4397895,87.9542771 82.4693526,87.9089469 C82.4989158,87.8636167 82.5373473,87.8330686 82.5846484,87.8173016 C82.6319494,87.8015345 82.689104,87.7936511 82.7561138,87.7936511 L83.3296363,87.7936511 L83.3296363,83.199559 Z M75.2707591,83.199559 C75.2037493,83.199559 75.1465947,83.1916756 75.0992936,83.1759086 C75.0519926,83.1601416 75.013561,83.1305789 74.9839979,83.0872196 C74.9544347,83.0438603 74.9327554,82.982764 74.9189593,82.9039289 C74.9051631,82.8250938 74.8982651,82.7226097 74.8982651,82.5964736 C74.8982651,82.4703374 74.9051631,82.3678533 74.9189593,82.2890182 C74.9327554,82.2101831 74.9544347,82.1481014 74.9839979,82.1027713 C75.013561,82.0574411 75.0519926,82.0268929 75.0992936,82.0111259 C75.1465947,81.9953589 75.2037493,81.9874755 75.2707591,81.9874755 L77.8368286,81.9874755 C77.9038384,81.9874755 77.960993,81.9953589 78.008294,82.0111259 C78.0555951,82.0268929 78.0940266,82.0574411 78.1235898,82.1027713 C78.153153,82.1481014 78.1748323,82.2101831 78.1886284,82.2890182 C78.2024246,82.3678533 78.2093225,82.4703374 78.2093225,82.5964736 C78.2093225,82.7226097 78.2024246,82.8250938 78.1886284,82.9039289 C78.1748323,82.982764 78.153153,83.0438603 78.1235898,83.0872196 C78.0940266,83.1305789 78.0555951,83.1601416 78.008294,83.1759086 C77.960993,83.1916756 77.9038384,83.199559 77.8368286,83.199559 L77.310607,83.199559 L78.5818165,86.8239843 L79.9358025,83.199559 L79.5160077,83.199559 C79.4489978,83.199559 79.3918433,83.1916756 79.3445422,83.1759086 C79.2972411,83.1601416 79.2588096,83.1305789 79.2292465,83.0872196 C79.1996833,83.0438603 79.178004,82.982764 79.1642078,82.9039289 C79.1504117,82.8250938 79.1435137,82.7226097 79.1435137,82.5964736 C79.1435137,82.4703374 79.1504117,82.3678533 79.1642078,82.2890182 C79.178004,82.2101831 79.1996833,82.1481014 79.2292465,82.1027713 C79.2588096,82.0574411 79.2972411,82.0268929 79.3445422,82.0111259 C79.3918433,81.9953589 79.4489978,81.9874755 79.5160077,81.9874755 L81.9046991,81.9874755 C81.9717089,81.9874755 82.0288635,81.9953589 82.0761646,82.0111259 C82.1234656,82.0268929 82.1618971,82.0574411 82.1914603,82.1027713 C82.2210235,82.1481014 82.2427028,82.2101831 82.2564989,82.2890182 C82.2702951,82.3678533 82.277193,82.4703374 82.277193,82.5964736 C82.277193,82.7226097 82.2702951,82.8250938 82.2564989,82.9039289 C82.2427028,82.982764 82.2210235,83.0438603 82.1914603,83.0872196 C82.1618971,83.1305789 82.1234656,83.1601416 82.0761646,83.1759086 C82.0288635,83.1916756 81.9717089,83.199559 81.9046991,83.199559 L81.5026421,83.199559 L79.3563674,88.7514927 C79.3287751,88.8224443 79.2952707,88.8815698 79.2558532,88.9288708 C79.2164356,88.9761719 79.166179,89.0155888 79.1050818,89.0471229 C79.0439846,89.0786569 78.9700778,89.1013217 78.8833592,89.1151178 C78.7966406,89.1289139 78.6921857,89.1358119 78.5699913,89.1358119 C78.4477969,89.1358119 78.343342,89.1289139 78.2566234,89.1151178 C78.1699047,89.1013217 78.0969834,89.0786569 78.0378571,89.0471229 C77.9787307,89.0155888 77.9294595,88.9751865 77.890042,88.9259145 C77.8506244,88.8766426 77.8190909,88.8185026 77.7954404,88.7514927 L75.7260295,83.199559 L75.2707591,83.199559 Z M71.5339943,83.199559 L70.1386202,83.199559 C70.0716103,83.199559 70.0144557,83.1916756 69.9671547,83.1759086 C69.9198536,83.1601416 69.8814221,83.1305789 69.8518589,83.0872196 C69.8222958,83.0438603 69.8006164,82.982764 69.7868203,82.9039289 C69.7730242,82.8250938 69.7661262,82.7226097 69.7661262,82.5964736 C69.7661262,82.4703374 69.7730242,82.3678533 69.7868203,82.2890182 C69.8006164,82.2101831 69.8222958,82.1481014 69.8518589,82.1027713 C69.8814221,82.0574411 69.9198536,82.0268929 69.9671547,82.0111259 C70.0144557,81.9953589 70.0716103,81.9874755 70.1386202,81.9874755 L74.4075191,81.9874755 C74.474529,81.9874755 74.5316836,81.9953589 74.5789846,82.0111259 C74.6262857,82.0268929 74.6647172,82.0574411 74.6942804,82.1027713 C74.7238435,82.1481014 74.7455228,82.2101831 74.759319,82.2890182 C74.7731151,82.3678533 74.7800131,82.4703374 74.7800131,82.5964736 C74.7800131,82.7226097 74.7731151,82.8250938 74.759319,82.9039289 C74.7455228,82.982764 74.7238435,83.0438603 74.6942804,83.0872196 C74.6647172,83.1305789 74.6262857,83.1601416 74.5789846,83.1759086 C74.5316836,83.1916756 74.474529,83.199559 74.4075191,83.199559 L73.012145,83.199559 L73.012145,87.7936511 L74.5257712,87.7936511 C74.592781,87.7936511 74.6499356,87.8015345 74.6972367,87.8173016 C74.7445377,87.8330686 74.7829692,87.8636167 74.8125324,87.9089469 C74.8420956,87.9542771 74.8637749,88.0163588 74.877571,88.0951939 C74.8913672,88.174029 74.8982651,88.276513 74.8982651,88.4026492 C74.8982651,88.5287854 74.8913672,88.6312694 74.877571,88.7101045 C74.8637749,88.7889396 74.8420956,88.8500359 74.8125324,88.8933952 C74.7829692,88.9367545 74.7445377,88.9663172 74.6972367,88.9820842 C74.6499356,88.9978513 74.592781,89.0057347 74.5257712,89.0057347 L70.0203681,89.0057347 C69.9533583,89.0057347 69.8962037,88.9978513 69.8489026,88.9820842 C69.8016016,88.9663172 69.76317,88.9367545 69.7336069,88.8933952 C69.7040437,88.8500359 69.6823644,88.7889396 69.6685683,88.7101045 C69.6547721,88.6312694 69.6478741,88.5287854 69.6478741,88.4026492 C69.6478741,88.276513 69.6547721,88.174029 69.6685683,88.0951939 C69.6823644,88.0163588 69.7040437,87.9542771 69.7336069,87.9089469 C69.76317,87.8636167 69.8016016,87.8330686 69.8489026,87.8173016 C69.8962037,87.8015345 69.9533583,87.7936511 70.0203681,87.7936511 L71.5339943,87.7936511 L71.5339943,83.199559 Z M82.3922755,77.9999136 L82.4985527,77.9999136 L91.999568,77.9999136 L91.999568,92 L82.4985527,92 L77.9994816,92 L58.9996112,92 L58.9996112,91.3882577 L58.9996112,77.9999136 L58.9996112,77.0455783 C69.9586988,73.9890267 77.9994816,63.9341599 77.9994816,52 C77.9994816,37.6404718 66.3590962,26.0000864 52,26.0000864 C37.6404718,26.0000864 26.0000864,37.6404718 26.0000864,52 C26.0000864,63.9341599 34.0408692,73.9890267 44.9999568,77.0455783 L44.9999568,77.9999136 L44.9999568,91.3882577 L44.9999568,92 L12,92 L12,77.9999136 L21.6072925,77.9999136 C15.6194755,71.0076468 12,61.9274204 12,52 C12,29.9085843 29.9085843,12 52,12 C74.0909837,12 91.999568,29.9085843 91.999568,52 C91.999568,61.9274204 88.3800925,71.0076468 82.3922755,77.9999136 Z M64.3738327,83.199559 L64.3738327,87.7936511 L63.6229322,87.7936511 C63.5559224,87.7936511 63.4987678,87.8015345 63.4514667,87.8173016 C63.4041657,87.8330686 63.3657342,87.8636167 63.336171,87.9089469 C63.3066078,87.9542771 63.2849285,88.0163588 63.2711324,88.0951939 C63.2573362,88.174029 63.2504383,88.276513 63.2504383,88.4026492 C63.2504383,88.5287854 63.2573362,88.6312694 63.2711324,88.7101045 C63.2849285,88.7889396 63.3066078,88.8500359 63.336171,88.8933952 C63.3657342,88.9367545 63.4041657,88.9663172 63.4514667,88.9820842 C63.4987678,88.9978513 63.5559224,89.0057347 63.6229322,89.0057347 L67.1350181,89.0057347 C67.2020279,89.0057347 67.2591825,88.9978513 67.3064836,88.9820842 C67.3537846,88.9663172 67.3922162,88.9367545 67.4217793,88.8933952 C67.4513425,88.8500359 67.4730218,88.7889396 67.4868179,88.7101045 C67.5006141,88.6312694 67.507512,88.5287854 67.507512,88.4026492 C67.507512,88.276513 67.5006141,88.174029 67.4868179,88.0951939 C67.4730218,88.0163588 67.4513425,87.9542771 67.4217793,87.9089469 C67.3922162,87.8636167 67.3537846,87.8330686 67.3064836,87.8173016 C67.2591825,87.8015345 67.2020279,87.7936511 67.1350181,87.7936511 L65.8519834,87.7936511 L65.8519834,86.3332383 L67.6494145,86.3332383 C67.7164243,86.3332383 67.7735789,86.3233841 67.82088,86.3036753 C67.868181,86.2839665 67.9066126,86.2504621 67.9361757,86.2031611 C67.9657389,86.15586 67.9874182,86.0918075 68.0012144,86.0110015 C68.0150105,85.9301955 68.0219085,85.826726 68.0219085,85.7005899 C68.0219085,85.5744537 68.0150105,85.4699988 68.0012144,85.3872219 C67.9874182,85.3044451 67.9657389,85.2394071 67.9361757,85.1921061 C67.9066126,85.144805 67.868181,85.1113006 67.82088,85.0915918 C67.7735789,85.071883 67.7164243,85.0620288 67.6494145,85.0620288 L65.8519834,85.0620288 L65.8519834,83.258685 L68.1578983,83.258685 L68.1578983,84.1574006 C68.1578983,84.2244105 68.1677526,84.281565 68.1874613,84.3288661 C68.2071701,84.3761672 68.2406745,84.4145987 68.2879756,84.4441618 C68.3352766,84.473725 68.4003146,84.4954043 68.4830915,84.5092005 C68.5658683,84.5229966 68.6703232,84.5298946 68.7964594,84.5298946 C69.0487317,84.5298946 69.2320205,84.5013173 69.3463314,84.4441618 C69.4606423,84.3870064 69.5177969,84.2914203 69.5177969,84.1574006 L69.5177969,82.3717947 C69.5177969,82.2338333 69.4882342,82.1352909 69.4291079,82.0761646 C69.3699815,82.0170382 69.2714391,81.9874755 69.1334777,81.9874755 L63.6229322,81.9874755 C63.5559224,81.9874755 63.4987678,81.9953589 63.4514667,82.0111259 C63.4041657,82.0268929 63.3657342,82.0574411 63.336171,82.1027713 C63.3066078,82.1481014 63.2849285,82.2101831 63.2711324,82.2890182 C63.2573362,82.3678533 63.2504383,82.4703374 63.2504383,82.5964736 C63.2504383,82.7226097 63.2573362,82.8250938 63.2711324,82.9039289 C63.2849285,82.982764 63.3066078,83.0438603 63.336171,83.0872196 C63.3657342,83.1305789 63.4041657,83.1601416 63.4514667,83.1759086 C63.4987678,83.1916756 63.5559224,83.199559 63.6229322,83.199559 L64.3738327,83.199559 Z" id="FIVE"></path>
    </g>
</g>
</svg>
